<mxfile host="app.diagrams.net" modified="2024-04-05T14:21:19.072Z" agent="Mozilla/5.0 (Macintosh; Intel Mac OS X 10_15_7) AppleWebKit/537.36 (KHTML, like Gecko) Chrome/116.0.0.0 Safari/537.36" version="24.2.2" etag="4_YdtV1P_I6mOni31Gm5" type="github">
  <diagram name="Page-1" id="yyI4M1kpB_PIbapaLG1D">
    <mxGraphModel>
      <root>
        <mxCell id="0" />
        <mxCell id="1" parent="0" />
      </root>
    </mxGraphModel>
  </diagram>
</mxfile>
